<svg width="616" height="351" viewBox="0 0 616 351" fill="none" xmlns="http://www.w3.org/2000/svg">
<path d="M216 221L302.603 371H129.397L216 221Z" fill="#255895" fill-opacity="0.25"/>
<path d="M316 367L229.397 217L402.603 217L316 367Z" fill="#4688D7" fill-opacity="0.2"/>
<path d="M16 221L102.603 371H-70.6025L16 221Z" fill="#255895" fill-opacity="0.25"/>
<path d="M116 367L29.3975 217L202.603 217L116 367Z" fill="#4688D7" fill-opacity="0.2"/>
<path d="M316 54L402.603 204H229.397L316 54Z" fill="#255895" fill-opacity="0.25"/>
<path d="M416 200L329.397 50L502.603 50L416 200Z" fill="#4688D7" fill-opacity="0.2"/>
<path d="M416 221L502.603 371H329.397L416 221Z" fill="#255895" fill-opacity="0.25"/>
<path d="M516 367L429.397 217L602.603 217L516 367Z" fill="#4688D7" fill-opacity="0.2"/>
</svg>
