<svg width="31" height="30" viewBox="0 0 31 30" fill="none" xmlns="http://www.w3.org/2000/svg">
<path fill-rule="evenodd" clip-rule="evenodd" d="M23.3004 19.3004C24.6878 17.3675 25.5 15.0248 25.5 12.5C25.5 5.87258 19.9036 0.5 13 0.5C6.09644 0.5 0.5 5.87258 0.5 12.5C0.5 19.1274 6.09644 24.5 13 24.5C15.7994 24.5 18.3839 23.6166 20.4674 22.1243L27.6716 29.3284L30.5 26.5L23.3004 19.3004ZM13 22.069C7.49498 22.069 3.03227 17.7848 3.03227 12.5C3.03227 7.21518 7.49498 2.93098 13 2.93098C18.505 2.93098 22.9677 7.21518 22.9677 12.5C22.9677 17.7848 18.505 22.069 13 22.069Z" fill="#255895"/>
</svg>
